<?xml version="1.0" standalone="no"?>
<!DOCTYPE svg PUBLIC "-//W3C//DTD SVG 20010904//EN"
 "http://www.w3.org/TR/2001/REC-SVG-20010904/DTD/svg10.dtd">
<svg version="1.0" xmlns="http://www.w3.org/2000/svg"
 width="204.000000pt" height="204.000000pt" viewBox="0 0 204.000000 204.000000"
 preserveAspectRatio="xMidYMid meet">
<metadata>
Created by potrace 1.14, written by Peter Selinger 2001-2017
</metadata>
<g transform="translate(0.000000,204.000000) scale(0.100000,-0.100000)"
fill="#000000" stroke="none">
<path d="M806 1693 c-1 -1 -69 -5 -151 -8 -275 -10 -370 -19 -392 -37 -7 -6
-13 -7 -13 -3 0 4 -7 2 -15 -5 -8 -7 -15 -9 -15 -5 0 9 -69 -42 -88 -65 -36
-43 -58 -117 -70 -245 -15 -164 -6 -684 13 -714 2 -4 7 -23 10 -42 7 -38 64
-128 82 -129 6 0 13 -4 15 -8 7 -17 103 -53 152 -58 28 -2 66 -6 83 -9 144
-24 1009 -24 1238 0 86 10 185 34 185 47 0 4 5 8 10 8 29 0 104 92 114 140 3
14 7 36 11 50 7 33 16 119 20 205 2 39 4 71 5 73 5 8 2 81 -4 90 -3 6 -3 13 1
15 8 5 8 36 -1 192 -17 287 -44 373 -135 432 -26 17 -65 34 -86 37 -22 4 -47
9 -57 12 -41 13 -900 38 -912 27z"/>
</g>
</svg>
